<?xml version="1.0" standalone="no"?>
<!DOCTYPE svg PUBLIC "-//W3C//DTD SVG 20010904//EN"
 "http://www.w3.org/TR/2001/REC-SVG-20010904/DTD/svg10.dtd">
<svg version="1.0" xmlns="http://www.w3.org/2000/svg"
 width="512.000000pt" height="512.000000pt" viewBox="0 0 512.000000 512.000000"
 preserveAspectRatio="xMidYMid meet">
<metadata>
Created by potrace 1.14, written by Peter Selinger 2001-2017
</metadata>
<g transform="translate(0.000000,512.000000) scale(0.100000,-0.100000)"
fill="#000000" stroke="none">
<path d="M543 4156 c-11 -17 -10 -3079 0 -3093 7 -10 68 -13 242 -13 194 0
234 2 238 14 3 8 6 306 6 662 1 356 3 649 5 651 7 8 536 6 544 -1 4 -4 7 -301
8 -659 1 -359 2 -655 3 -659 1 -10 473 -10 486 0 12 8 15 3079 3 3098 -10 16
-485 17 -490 1 -2 -7 -4 -306 -4 -665 1 -571 -1 -653 -14 -657 -28 -8 -530 -4
-535 5 -3 5 -6 301 -6 659 0 508 -3 651 -12 660 -18 14 -465 12 -474 -3z"/>
<path d="M3132 4156 c-6 -8 -9 -2999 -3 -3088 1 -17 19 -18 234 -18 127 0 237
4 243 8 8 5 11 146 12 487 0 343 3 480 11 483 6 2 11 11 11 21 0 9 8 28 17 41
10 14 33 54 52 90 42 81 58 104 64 93 4 -8 25 -60 81 -205 13 -35 35 -92 49
-128 14 -36 91 -238 172 -450 80 -212 152 -396 160 -410 l14 -25 245 -3 c144
-1 246 1 246 7 0 5 -18 53 -39 107 -22 55 -69 176 -106 269 -64 166 -71 183
-93 235 -5 14 -38 97 -72 185 -34 88 -68 174 -75 190 -7 17 -43 107 -80 200
-36 94 -98 250 -136 347 -78 195 -77 183 -23 288 36 70 290 589 409 835 40 83
105 215 144 293 39 79 69 148 66 152 -3 5 -109 8 -237 7 -212 0 -232 -2 -247
-19 -9 -10 -16 -22 -17 -26 0 -4 -19 -45 -41 -92 -55 -114 -124 -261 -218
-460 -42 -91 -87 -183 -98 -205 -12 -22 -22 -42 -22 -45 -2 -8 -29 -67 -88
-190 -30 -63 -73 -155 -96 -204 -23 -49 -44 -86 -48 -82 -3 3 -6 301 -6 661 0
360 -3 656 -6 657 -3 0 -111 2 -238 3 -161 2 -235 -1 -241 -9z"/>
</g>
</svg>
